<?xml version="1.0" encoding="UTF-8"?>
<!-- Do not edit this file with editors other than draw.io -->
<!DOCTYPE svg PUBLIC "-//W3C//DTD SVG 1.1//EN" "http://www.w3.org/Graphics/SVG/1.1/DTD/svg11.dtd">
<svg xmlns="http://www.w3.org/2000/svg" style="background: transparent; background-color: transparent; color-scheme: light dark;" xmlns:xlink="http://www.w3.org/1999/xlink" version="1.1" width="42px" height="102px" viewBox="-0.5 -0.5 42 102" content="&lt;mxfile host=&quot;app.diagrams.net&quot; agent=&quot;Mozilla/5.0 (Windows NT 10.0; Win64; x64) AppleWebKit/537.36 (KHTML, like Gecko) Chrome/135.0.0.0 Safari/537.36&quot; version=&quot;26.2.14&quot; scale=&quot;1&quot; border=&quot;0&quot;&gt;&#10;  &lt;diagram name=&quot;Página-1&quot; id=&quot;IFO4MDr0qRCJsn9mVVyJ&quot;&gt;&#10;    &lt;mxGraphModel dx=&quot;1699&quot; dy=&quot;431&quot; grid=&quot;1&quot; gridSize=&quot;10&quot; guides=&quot;1&quot; tooltips=&quot;1&quot; connect=&quot;1&quot; arrows=&quot;1&quot; fold=&quot;1&quot; page=&quot;1&quot; pageScale=&quot;1&quot; pageWidth=&quot;827&quot; pageHeight=&quot;1169&quot; math=&quot;0&quot; shadow=&quot;0&quot;&gt;&#10;      &lt;root&gt;&#10;        &lt;mxCell id=&quot;0&quot; /&gt;&#10;        &lt;mxCell id=&quot;1&quot; parent=&quot;0&quot; /&gt;&#10;        &lt;mxCell id=&quot;wqZN9HoxEVJ1flAYIoJc-3&quot; value=&quot;&quot; style=&quot;fontColor=#0066CC;verticalAlign=top;verticalLabelPosition=bottom;labelPosition=center;align=center;html=1;outlineConnect=0;fillColor=#080808;strokeColor=#6881B3;gradientColor=none;gradientDirection=north;strokeWidth=2;shape=mxgraph.networks.user_female;&quot; vertex=&quot;1&quot; parent=&quot;1&quot;&gt;&#10;          &lt;mxGeometry x=&quot;-40&quot; y=&quot;280&quot; width=&quot;40&quot; height=&quot;100&quot; as=&quot;geometry&quot; /&gt;&#10;        &lt;/mxCell&gt;&#10;      &lt;/root&gt;&#10;    &lt;/mxGraphModel&gt;&#10;  &lt;/diagram&gt;&#10;&lt;/mxfile&gt;&#10;"><defs/><g><g data-cell-id="0"><g data-cell-id="1"><g data-cell-id="wqZN9HoxEVJ1flAYIoJc-3"><g><path d="M 21 1 C 24.88 1 28.6 2.58 31.34 5.39 C 34.08 8.21 35.62 12.02 35.62 16 C 34.38 20.92 34.38 26.08 35.62 31 C 26.25 34.89 15.76 34.89 6.39 31 C 7.63 26.08 7.63 20.92 6.39 16 C 6.39 12.02 7.93 8.21 10.67 5.39 C 13.41 2.58 17.13 1 21 1 Z M 30.75 36 C 33.33 36 35.81 37.05 37.64 38.93 C 39.47 40.8 40.49 43.35 40.49 46 L 40.49 61 C 41.01 65.04 39.08 69 35.62 71 L 40.49 81 L 30.75 81 L 30.75 96 C 30.75 97.33 30.24 98.6 29.32 99.54 C 28.41 100.47 27.17 101 25.88 101 L 16.13 101 C 14.84 101 13.6 100.47 12.69 99.54 C 11.77 98.6 11.26 97.33 11.26 96 L 11.26 81 L 1.52 81 L 6.39 71 C 2.93 69 1 65.04 1.52 61 L 1.52 46 C 1.52 43.35 2.54 40.8 4.37 38.93 C 6.2 37.05 8.68 36 11.26 36 L 13.21 36 C 13.21 40.42 16.7 44 21 44 C 25.31 44 28.8 40.42 28.8 36 Z" fill="#080808" stroke="#6881b3" stroke-width="1.95" stroke-miterlimit="10" pointer-events="all" style="fill: light-dark(rgb(8, 8, 8), rgb(230, 230, 230)); stroke: light-dark(rgb(104, 129, 179), rgb(107, 129, 172));"/></g></g></g></g></g></svg>