<?xml version="1.0" encoding="UTF-8"?>
<!-- Do not edit this file with editors other than draw.io -->
<!DOCTYPE svg PUBLIC "-//W3C//DTD SVG 1.1//EN" "http://www.w3.org/Graphics/SVG/1.1/DTD/svg11.dtd">
<svg xmlns="http://www.w3.org/2000/svg" style="background: transparent; background-color: transparent; color-scheme: light dark;" xmlns:xlink="http://www.w3.org/1999/xlink" version="1.1" width="42px" height="102px" viewBox="-0.5 -0.5 42 102" content="&lt;mxfile host=&quot;app.diagrams.net&quot; agent=&quot;Mozilla/5.0 (Windows NT 10.0; Win64; x64) AppleWebKit/537.36 (KHTML, like Gecko) Chrome/135.0.0.0 Safari/537.36&quot; version=&quot;26.2.14&quot; scale=&quot;1&quot; border=&quot;0&quot;&gt;&#10;  &lt;diagram name=&quot;Página-1&quot; id=&quot;IFO4MDr0qRCJsn9mVVyJ&quot;&gt;&#10;    &lt;mxGraphModel dx=&quot;872&quot; dy=&quot;431&quot; grid=&quot;1&quot; gridSize=&quot;10&quot; guides=&quot;1&quot; tooltips=&quot;1&quot; connect=&quot;1&quot; arrows=&quot;1&quot; fold=&quot;1&quot; page=&quot;1&quot; pageScale=&quot;1&quot; pageWidth=&quot;827&quot; pageHeight=&quot;1169&quot; math=&quot;0&quot; shadow=&quot;0&quot;&gt;&#10;      &lt;root&gt;&#10;        &lt;mxCell id=&quot;0&quot; /&gt;&#10;        &lt;mxCell id=&quot;1&quot; parent=&quot;0&quot; /&gt;&#10;        &lt;mxCell id=&quot;wqZN9HoxEVJ1flAYIoJc-1&quot; value=&quot;&quot; style=&quot;fontColor=#0066CC;verticalAlign=top;verticalLabelPosition=bottom;labelPosition=center;align=center;html=1;outlineConnect=0;fillColor=#080808;strokeColor=#6881B3;gradientColor=none;gradientDirection=north;strokeWidth=2;shape=mxgraph.networks.user_male;&quot; vertex=&quot;1&quot; parent=&quot;1&quot;&gt;&#10;          &lt;mxGeometry x=&quot;390&quot; y=&quot;180&quot; width=&quot;40&quot; height=&quot;100&quot; as=&quot;geometry&quot; /&gt;&#10;        &lt;/mxCell&gt;&#10;      &lt;/root&gt;&#10;    &lt;/mxGraphModel&gt;&#10;  &lt;/diagram&gt;&#10;&lt;/mxfile&gt;&#10;"><defs/><g><g data-cell-id="0"><g data-cell-id="1"><g data-cell-id="wqZN9HoxEVJ1flAYIoJc-1"><g><path d="M 21 1 C 29.28 1 36 7.72 36 16 C 36 24.28 29.28 31 21 31 C 12.72 31 6 24.28 6 16 C 6 7.72 12.72 1 21 1 Z M 31 36 C 36.52 36 41 40.48 41 46 L 41 61 C 41 66.52 36.52 71 31 71 L 31 96 C 31 98.76 28.76 101 26 101 L 16 101 C 13.24 101 11 98.76 11 96 L 11 71 C 5.48 71 1 66.52 1 61 L 1 46 C 1 40.48 5.48 36 11 36 Z" fill="#080808" stroke="#6881b3" stroke-width="2" stroke-miterlimit="10" pointer-events="all" style="fill: light-dark(rgb(8, 8, 8), rgb(230, 230, 230)); stroke: light-dark(rgb(104, 129, 179), rgb(107, 129, 172));"/></g></g></g></g></g></svg>