<?xml version="1.0" encoding="utf-8"?>
<!-- Svg Vector Icons : http://www.onlinewebfonts.com/icon -->
<!DOCTYPE svg PUBLIC "-//W3C//DTD SVG 1.1//EN" "http://www.w3.org/Graphics/SVG/1.1/DTD/svg11.dtd">
<svg version="1.1" xmlns="http://www.w3.org/2000/svg" xmlns:xlink="http://www.w3.org/1999/xlink" x="0px" y="0px" viewBox="0 0 256 256" enable-background="new 0 0 256 256" xml:space="preserve">
<metadata> Svg Vector Icons : http://www.onlinewebfonts.com/icon </metadata>
<g><g><g><path fill="#000000" d="M45.5,33.5v23.5H128h82.5V33.5V10H128H45.5V33.5z"/><path fill="#000000" d="M41.5,84.6c-16.7,16.8-18.2,18.8-19.3,25.9c-0.8,4.7-0.7,110.7,0.1,115.5c0.8,4.9,2.5,8.5,5.9,12.2c3.2,3.5,7.8,6.2,12.2,7.1c2,0.4,27.8,0.6,87.8,0.6c74.5,0,85.3-0.1,88.2-0.8c9.2-2.4,15.9-9.8,17.4-19.2c0.4-2.3,0.6-22.9,0.6-58.1c0-59.4,0-59.1-3.2-65c-1.1-2-6.1-7.5-16.7-18.3l-15.2-15.3H128H56.8L41.5,84.6z M86.8,117.8c1.3,0.8,3.1,2.4,3.9,3.7l1.5,2.3l0.2,13.8l0.2,13.7H128h35.4l0.2-13.8l0.2-13.8l1.7-2.4c2.4-3.4,5.8-5.2,10-5.1c3.7,0,5.7,0.8,8.3,3.4c3,2.9,3.7,5.3,3.7,13v7.1h7.1c7.6,0,10,0.7,13,3.4c3.3,3.2,3.5,4,3.7,18.4c0.1,7.3,0.1,14.3-0.2,15.6c-0.5,3.5-3.2,7.1-6.5,8.8c-2.7,1.3-3.5,1.4-10,1.4h-7.1v7.1c0,6.5-0.1,7.3-1.4,10c-4.1,8.2-15.5,8.9-20.6,1.2l-1.6-2.3l-0.2-13.8l-0.2-13.7H128H92.6l-0.2,13.7l-0.2,13.8l-1.6,2.3c-5.1,7.7-16.5,7-20.6-1.2c-1.3-2.7-1.4-3.5-1.4-10v-7.1h-7.1c-6.5,0-7.3-0.1-10-1.4c-3.3-1.7-6-5.2-6.5-8.8c-0.2-1.3-0.3-8.3-0.2-15.6l0.2-13.4l1.7-2.7c1.2-2,2.5-3.2,4.7-4.3c2.8-1.4,3.4-1.5,10.1-1.5h7.1v-7.1c0-6.5,0.1-7.3,1.4-10C73.3,116.3,80.7,114.2,86.8,117.8z"/></g></g></g>
</svg>